<svg viewBox="0 0 46 46" fill="none" xmlns="http://www.w3.org/2000/svg">
<path d="M28.6583 0H16.9083L15.5604 6.74375C14.4444 7.24387 13.3832 7.85826 12.3938 8.57708L5.87292 6.37083L0 16.5458L5.16875 21.0875C5.04393 22.3037 5.04393 23.5296 5.16875 24.7458L0 29.2875L5.875 39.4625L12.3938 37.2583C13.3771 37.9708 14.4354 38.5875 15.5604 39.0896L16.9083 45.8333H28.6583L30.0063 39.0896C31.1223 38.5894 32.1835 37.9751 33.1729 37.2562L39.6938 39.4625L45.5688 29.2875L40.3979 24.7458C40.5227 23.5296 40.5227 22.3037 40.3979 21.0875L45.5667 16.5458L39.6917 6.37083L33.175 8.575C32.1855 7.8569 31.1243 7.24321 30.0083 6.74375L28.6583 0ZM22.7833 31.25C20.5732 31.25 18.4536 30.372 16.8908 28.8092C15.328 27.2464 14.45 25.1268 14.45 22.9167C14.45 20.7065 15.328 18.5869 16.8908 17.0241C18.4536 15.4613 20.5732 14.5833 22.7833 14.5833C24.9935 14.5833 27.1131 15.4613 28.6759 17.0241C30.2387 18.5869 31.1167 20.7065 31.1167 22.9167C31.1167 25.1268 30.2387 27.2464 28.6759 28.8092C27.1131 30.372 24.9935 31.25 22.7833 31.25Z" fill="white"/>
</svg>
