<svg viewBox="0 0 37 37" fill="none" xmlns="http://www.w3.org/2000/svg">
<path fill-rule="evenodd" clip-rule="evenodd" d="M32.842 5.70351C34.156 6.05553 35.2859 6.89637 36.0004 8.054C36.7149 9.21163 36.96 10.5985 36.6856 11.931L36.6132 12.2355L31.0918 32.8419C30.7398 34.1559 29.8989 35.2858 28.7413 36.0003C27.5836 36.7148 26.1967 36.9599 24.8643 36.6855L24.5598 36.6131L3.95338 31.0917C2.63934 30.7396 1.50948 29.8988 0.794981 28.7412C0.0804816 27.5835 -0.164648 26.1966 0.109747 24.8642L0.182143 24.5597L5.70362 3.95327C6.05563 2.63923 6.89648 1.50937 8.05411 0.794873C9.21174 0.0803731 10.5986 -0.164756 11.9311 0.109639L12.2356 0.182035L32.842 5.70351ZM11.4672 20.2216C10.8269 20.05 10.1457 20.1231 9.55631 20.4266C8.96696 20.7301 8.51178 21.2422 8.27953 21.8631L8.20126 22.1072L8.14242 22.3748C8.03347 23.0285 8.17182 23.6994 8.5305 24.2566C8.88918 24.8138 9.4425 25.2175 10.0826 25.3891C10.7227 25.5606 11.4038 25.4876 11.993 25.1844C12.5823 24.8811 13.0375 24.3693 13.27 23.7488L13.3483 23.5047L13.4071 23.237C13.5164 22.5832 13.3783 21.9121 13.0196 21.3546C12.661 20.7971 12.1075 20.3932 11.4672 20.2216ZM23.4877 23.4424C22.8473 23.2709 22.1661 23.344 21.5767 23.6475C20.9874 23.951 20.5322 24.4631 20.2999 25.084L20.2171 25.3452C20.0401 26.0068 20.1245 26.7111 20.4527 27.3121C20.781 27.9132 21.3278 28.3649 21.98 28.5738C22.6322 28.7826 23.3398 28.7325 23.9561 28.4339C24.5724 28.1352 25.0501 27.6109 25.2904 26.9696L25.3733 26.7084C25.5563 26.0253 25.4605 25.2974 25.1069 24.6849C24.7532 24.0724 24.1708 23.6255 23.4877 23.4424ZM19.0879 15.8218C18.4476 15.6502 17.7663 15.7233 17.1769 16.0268C16.5876 16.3303 16.1324 16.8425 15.9002 17.4633L15.8173 17.7246C15.6404 18.3862 15.7248 19.0904 16.053 19.6915C16.3812 20.2926 16.928 20.7443 17.5803 20.9531C18.2325 21.162 18.94 21.1119 19.5563 20.8132C20.1726 20.5146 20.6504 19.9903 20.8906 19.349L20.9735 19.0878C21.1565 18.4046 21.0607 17.6767 20.7071 17.0643C20.3535 16.4518 19.771 16.0048 19.0879 15.8218ZM14.6881 8.20115C14.0478 8.02961 13.3665 8.10271 12.7772 8.4062C12.1878 8.7097 11.7326 9.22182 11.5004 9.84271L11.4221 10.0868L11.3633 10.3544C11.2543 11.0081 11.3927 11.6789 11.7514 12.2362C12.11 12.7934 12.6634 13.1971 13.3035 13.3686C13.9436 13.5402 14.6246 13.4672 15.2139 13.164C15.8031 12.8607 16.2584 12.3489 16.4908 11.7284L16.5691 11.4843L16.628 11.2166C16.7373 10.5628 16.5991 9.89171 16.2405 9.3342C15.8818 8.77669 15.3284 8.37275 14.6881 8.20115ZM26.7085 11.422C26.0682 11.2505 25.3869 11.3236 24.7976 11.6271C24.2082 11.9306 23.7531 12.4427 23.5208 13.0636L23.4379 13.3248C23.261 13.9864 23.3454 14.6907 23.6736 15.2917C24.0018 15.8928 24.5487 16.3445 25.2009 16.5534C25.8531 16.7622 26.5607 16.7121 27.1769 16.4135C27.7932 16.1148 28.271 15.5905 28.5112 14.9492L28.5941 14.688C28.7772 14.0048 28.6813 13.277 28.3277 12.6645C27.9741 12.052 27.3917 11.6051 26.7085 11.422Z" fill="white" fill-opacity="0.8"/>
</svg>
