<svg width="45" height="45" viewBox="0 0 45 45" fill="none" xmlns="http://www.w3.org/2000/svg">
<path d="M2.21734 24.2971H4.42567V39.7554C4.42567 42.1846 6.41317 44.1721 8.84234 44.1721H35.3423C37.7715 44.1721 39.759 42.1846 39.759 39.7554V24.2971H41.9673C42.8507 24.2971 43.6678 23.7671 43.999 22.9279C44.3523 22.1108 44.1536 21.1612 43.5132 20.5208L23.6603 0.645814C23.456 0.441093 23.2133 0.278676 22.9461 0.167859C22.679 0.0570412 22.3926 0 22.1034 0C21.8142 0 21.5278 0.0570412 21.2606 0.167859C20.9935 0.278676 20.7508 0.441093 20.5465 0.645814L0.649423 20.5208C0.00900611 21.1612 -0.167661 22.1108 0.163589 22.9279C0.494839 23.745 1.31192 24.2971 2.19526 24.2971H2.21734Z" fill="white"/>
</svg>
