<svg width="50" height="50" viewBox="0 0 50 50" fill="none" xmlns="http://www.w3.org/2000/svg">
<path d="M30.8751 2.08331H19.1251L17.7772 8.82706C16.6612 9.32718 15.6 9.94157 14.6105 10.6604L8.08971 8.45414L2.2168 18.6291L7.38555 23.1708C7.26073 24.3871 7.26073 25.6129 7.38555 26.8291L2.2168 31.3708L8.0918 41.5458L14.6105 39.3416C15.5939 40.0541 16.6522 40.6708 17.7772 41.1729L19.1251 47.9166H30.8751L32.2231 41.1729C33.3391 40.6728 34.4003 40.0584 35.3897 39.3395L41.9106 41.5458L47.7856 31.3708L42.6147 26.8291C42.7395 25.6129 42.7395 24.3871 42.6147 23.1708L47.7835 18.6291L41.9085 8.45414L35.3918 10.6583C34.4023 9.94021 33.3411 9.32652 32.2251 8.82706L30.8751 2.08331ZM25.0001 33.3333C22.79 33.3333 20.6704 32.4553 19.1076 30.8925C17.5448 29.3297 16.6668 27.2101 16.6668 25C16.6668 22.7898 17.5448 20.6702 19.1076 19.1074C20.6704 17.5446 22.79 16.6666 25.0001 16.6666C27.2103 16.6666 29.3299 17.5446 30.8927 19.1074C32.4555 20.6702 33.3335 22.7898 33.3335 25C33.3335 27.2101 32.4555 29.3297 30.8927 30.8925C29.3299 32.4553 27.2103 33.3333 25.0001 33.3333Z" fill="white"/>
</svg>
