<svg width="36" height="36" viewBox="0 0 36 36" fill="none" xmlns="http://www.w3.org/2000/svg">
<path d="M17.8584 13.75C19.0519 13.75 20.1965 14.2241 21.0404 15.068C21.8843 15.9119 22.3584 17.0565 22.3584 18.25C22.3584 19.4435 21.8843 20.5881 21.0404 21.432C20.1965 22.2759 19.0519 22.75 17.8584 22.75C16.6649 22.75 15.5203 22.2759 14.6764 21.432C13.8325 20.5881 13.3584 19.4435 13.3584 18.25C13.3584 17.0565 13.8325 15.9119 14.6764 15.068C15.5203 14.2241 16.6649 13.75 17.8584 13.75ZM17.8584 7C25.3584 7 31.7634 11.665 34.3584 18.25C31.7634 24.835 25.3584 29.5 17.8584 29.5C10.3584 29.5 3.9534 24.835 1.3584 18.25C3.9534 11.665 10.3584 7 17.8584 7ZM4.6284 18.25C5.84078 20.7255 7.72336 22.8111 10.0621 24.2699C12.4009 25.7286 15.102 26.502 17.8584 26.502C20.6148 26.502 23.3159 25.7286 25.6547 24.2699C27.9934 22.8111 29.876 20.7255 31.0884 18.25C29.876 15.7745 27.9934 13.6889 25.6547 12.2301C23.3159 10.7714 20.6148 9.99802 17.8584 9.99802C15.102 9.99802 12.4009 10.7714 10.0621 12.2301C7.72336 13.6889 5.84078 15.7745 4.6284 18.25Z" fill="#4A4A4A"/>
</svg>
