<svg width="22" height="17" viewBox="0 0 22 17" fill="none" xmlns="http://www.w3.org/2000/svg">
<path d="M1.22222 10.9286H3.66667C4.33889 10.9286 4.88889 10.3821 4.88889 9.71429V7.28571C4.88889 6.61786 4.33889 6.07143 3.66667 6.07143H1.22222C0.55 6.07143 0 6.61786 0 7.28571V9.71429C0 10.3821 0.55 10.9286 1.22222 10.9286ZM1.22222 17H3.66667C4.33889 17 4.88889 16.4536 4.88889 15.7857V13.3571C4.88889 12.6893 4.33889 12.1429 3.66667 12.1429H1.22222C0.55 12.1429 0 12.6893 0 13.3571V15.7857C0 16.4536 0.55 17 1.22222 17ZM1.22222 4.85714H3.66667C4.33889 4.85714 4.88889 4.31071 4.88889 3.64286V1.21429C4.88889 0.546429 4.33889 0 3.66667 0H1.22222C0.55 0 0 0.546429 0 1.21429V3.64286C0 4.31071 0.55 4.85714 1.22222 4.85714ZM7.33333 10.9286H20.7778C21.45 10.9286 22 10.3821 22 9.71429V7.28571C22 6.61786 21.45 6.07143 20.7778 6.07143H7.33333C6.66111 6.07143 6.11111 6.61786 6.11111 7.28571V9.71429C6.11111 10.3821 6.66111 10.9286 7.33333 10.9286ZM7.33333 17H20.7778C21.45 17 22 16.4536 22 15.7857V13.3571C22 12.6893 21.45 12.1429 20.7778 12.1429H7.33333C6.66111 12.1429 6.11111 12.6893 6.11111 13.3571V15.7857C6.11111 16.4536 6.66111 17 7.33333 17ZM6.11111 1.21429V3.64286C6.11111 4.31071 6.66111 4.85714 7.33333 4.85714H20.7778C21.45 4.85714 22 4.31071 22 3.64286V1.21429C22 0.546429 21.45 0 20.7778 0H7.33333C6.66111 0 6.11111 0.546429 6.11111 1.21429Z" fill="white"/>
</svg>
