<svg width="24" height="24" viewBox="-1 -1 26 26" fill="none" xmlns="http://www.w3.org/2000/svg">
<path d="M21.7599 16.812L16.9059 11.957C17.3254 10.5998 17.351 9.15132 16.9797 7.78014C16.6083 6.40895 15.8553 5.17139 14.8081 4.21141C13.761 3.25143 12.4628 2.60849 11.0646 2.35739C9.66638 2.10628 8.2256 2.25734 6.90987 2.79298L6.91087 3.37798L11.1539 7.62098L7.61887 11.156L3.37587 6.91298H2.78987C2.25427 8.22886 2.10333 9.66977 2.3546 11.0681C2.60588 12.4664 3.24905 13.7646 4.20928 14.8117C5.16951 15.8588 6.40732 16.6116 7.7787 16.9828C9.15008 17.3539 10.5987 17.3279 11.9559 16.908L16.8099 21.763M15.7489 15.753L19.2839 19.288" stroke="black" stroke-width="2" stroke-linecap="square"/>
</svg>
