<svg width="512" height="512" viewBox="0 0 512 512" fill="none" xmlns="http://www.w3.org/2000/svg">
<circle cx="256" cy="256" r="256" fill="#A749FC"/>
<path d="M358.432 189.064C331.826 174.123 296.309 165 257.3 165C215.461 165 177.64 175.495 150.52 192.406M153.087 321.47C180.001 337.463 216.765 347.314 257.3 347.314C297.834 347.314 334.598 337.463 361.513 321.47" stroke="white" stroke-width="25" stroke-linecap="round"/>
<path d="M303.131 297.051C303.131 302.184 298.943 306.344 293.777 306.345L217.232 306.345C212.066 306.344 207.878 302.184 207.877 297.051C207.877 296.086 208.031 295.127 208.316 294.204C211.837 282.782 214.897 269.43 214.897 255.162C214.897 240.842 211.822 227.443 208.277 215.994C208.017 215.155 207.877 214.282 207.877 213.404C207.878 208.733 211.69 204.945 216.392 204.945L294.617 204.945C299.319 204.945 303.131 208.733 303.131 213.404C303.131 214.282 302.992 215.155 302.732 215.994C299.187 227.443 296.112 240.842 296.112 255.162C296.112 269.43 299.172 282.782 302.693 294.204C302.977 295.127 303.131 296.086 303.131 297.051Z" fill="white"/>
<path d="M303.131 297.051C303.131 302.184 298.943 306.344 293.777 306.345L217.232 306.345C212.066 306.344 207.878 302.184 207.877 297.051C207.877 296.086 208.031 295.127 208.316 294.204C211.837 282.782 214.897 269.43 214.897 255.162C214.897 240.842 211.822 227.443 208.277 215.994C208.017 215.155 207.877 214.282 207.877 213.404C207.878 208.733 211.69 204.945 216.392 204.945L294.617 204.945C299.319 204.945 303.131 208.733 303.131 213.404C303.131 214.282 302.992 215.155 302.732 215.994C299.187 227.443 296.112 240.842 296.112 255.162C296.112 269.43 299.172 282.782 302.693 294.204C302.977 295.127 303.131 296.086 303.131 297.051Z" stroke="white"/>
<circle cx="387.119" cy="255.133" r="65.9146" transform="rotate(90 387.119 255.133)" stroke="white" stroke-width="30"/>
<circle cx="124.914" cy="255.133" r="65.9146" transform="rotate(90 124.914 255.133)" stroke="white" stroke-width="30"/>
</svg>
